<svg width="32" height="32" viewBox="0 0 32 32" fill="none" xmlns="http://www.w3.org/2000/svg">
<rect width="32" height="32" rx="8" fill="url(#paint0_linear_2513_2922)"/>
<path d="M13.6312 23.3089V20.7532C13.6312 20.1032 14.1611 19.575 14.8177 19.5707H17.2227C17.8824 19.5707 18.4173 20.1001 18.4173 20.7532V20.7532V23.3168C18.4171 23.8687 18.862 24.3197 19.4194 24.3327H21.0227C22.6211 24.3327 23.9168 23.0499 23.9168 21.4675V21.4675V14.1975C23.9083 13.575 23.6131 12.9905 23.1151 12.6102L17.6316 8.2371C16.6709 7.47565 15.3053 7.47565 14.3447 8.2371L8.88518 12.6181C8.38538 12.9969 8.08965 13.5824 8.0835 14.2055V21.4675C8.0835 23.0499 9.37923 24.3327 10.9776 24.3327H12.581C13.1521 24.3327 13.6151 23.8743 13.6151 23.3089V23.3089" stroke="white" stroke-width="1.5" stroke-linecap="round" stroke-linejoin="round"/>
<defs>
<linearGradient id="paint0_linear_2513_2922" x1="0" y1="16" x2="32" y2="16" gradientUnits="userSpaceOnUse">
<stop stop-color="#0090FF"/>
<stop offset="1" stop-color="#36DAE9"/>
</linearGradient>
</defs>
</svg>
