<svg width="34" height="34" viewBox="0 0 34 34" fill="none" xmlns="http://www.w3.org/2000/svg">
<rect opacity="0.16" x="1" y="1" width="32" height="32" rx="8" fill="white" stroke="white" stroke-width="0.5"/>
<path d="M14.6312 24.3089V21.7532C14.6312 21.1032 15.1611 20.575 15.8177 20.5707H18.2227C18.8824 20.5707 19.4173 21.1001 19.4173 21.7532V21.7532V24.3168C19.4171 24.8687 19.862 25.3197 20.4194 25.3327H22.0227C23.6211 25.3327 24.9168 24.0499 24.9168 22.4675V22.4675V15.1975C24.9083 14.575 24.6131 13.9905 24.1151 13.6102L18.6316 9.2371C17.6709 8.47565 16.3053 8.47565 15.3447 9.2371L9.88518 13.6181C9.38538 13.9969 9.08965 14.5824 9.0835 15.2055V22.4675C9.0835 24.0499 10.3792 25.3327 11.9776 25.3327H13.581C14.1521 25.3327 14.6151 24.8743 14.6151 24.3089V24.3089" stroke="white" stroke-width="1.5" stroke-linecap="round" stroke-linejoin="round"/>
</svg>
