<svg width="34" height="34" viewBox="0 0 34 34" fill="none" xmlns="http://www.w3.org/2000/svg">
<rect opacity="0.16" x="1" y="1" width="32" height="32" rx="8" fill="white" stroke="white" stroke-width="0.5"/>
<g opacity="0.7">
<path d="M17.4909 9.00006C17.3791 9.00116 17.2686 9.02437 17.1658 9.06839C17.063 9.11242 16.9698 9.1764 16.8916 9.25663C16.8134 9.33687 16.7518 9.43185 16.7102 9.53605C16.6685 9.64025 16.6478 9.75163 16.6491 9.86389V16.6962C16.6491 16.9229 16.7388 17.1402 16.8984 17.3005C17.058 17.4607 17.2744 17.5507 17.5 17.5507C17.7256 17.5507 17.942 17.4607 18.1016 17.3005C18.2612 17.1402 18.3509 16.9229 18.3509 16.6962V9.86389C18.3522 9.75008 18.3309 9.63714 18.2881 9.53173C18.2454 9.42633 18.1821 9.33054 18.102 9.25006C18.0218 9.16958 17.9265 9.10604 17.8216 9.0631C17.7166 9.02016 17.6042 8.99873 17.4909 9.00006ZM22.4502 10.7127C22.4226 10.7119 22.3948 10.7125 22.3672 10.7144C22.1992 10.7287 22.0391 10.793 21.9075 10.8989C21.7759 11.0048 21.6786 11.1477 21.628 11.3093C21.5775 11.4709 21.5759 11.6441 21.6236 11.8066C21.6713 11.9691 21.766 12.1137 21.8957 12.222C23.3682 13.478 24.2998 15.3474 24.2998 17.4466C24.2998 21.2372 21.2695 24.2923 17.5041 24.2923C13.7388 24.2923 10.7018 21.2372 10.7018 17.4466C10.7018 15.3595 11.6216 13.5028 13.0794 12.247C13.1643 12.1742 13.2342 12.0852 13.2849 11.9853C13.3356 11.8854 13.3662 11.7764 13.375 11.6646C13.3838 11.5528 13.3706 11.4404 13.3361 11.3337C13.3016 11.227 13.2466 11.1282 13.1741 11.0429C13.1016 10.9576 13.0131 10.8875 12.9136 10.8366C12.8141 10.7856 12.7056 10.7548 12.5943 10.746C12.483 10.7371 12.371 10.7504 12.2648 10.7851C12.1586 10.8197 12.0602 10.875 11.9753 10.9478C10.1555 12.5155 9.00001 14.8522 9 17.4466C8.99999 22.1585 12.8184 26 17.5042 26C22.1899 26 26 22.1585 26 17.4466C26 14.8371 24.8331 12.4908 22.9948 10.9228C22.8436 10.7905 22.6508 10.7161 22.4502 10.7127H22.4502Z" fill="white"/>
</g>
</svg>
